<?xml version="1.0" encoding="UTF-8" standalone="no"?>
<!-- Created with Inkscape (http://www.inkscape.org/) -->

<svg
   xmlns:dc="http://purl.org/dc/elements/1.1/"
   xmlns:cc="http://creativecommons.org/ns#"
   xmlns:rdf="http://www.w3.org/1999/02/22-rdf-syntax-ns#"
   xmlns:svg="http://www.w3.org/2000/svg"
   xmlns="http://www.w3.org/2000/svg"
   xmlns:sodipodi="http://sodipodi.sourceforge.net/DTD/sodipodi-0.dtd"
   xmlns:inkscape="http://www.inkscape.org/namespaces/inkscape"
   width="323.81024"
   height="107.02959"
   id="svg3492"
   version="1.1"
   inkscape:version="0.48.3.1 r9886"
   sodipodi:docname="LUG_logo_Non-UIC.svg"
   inkscape:export-filename="/home/user/Pictures/LUG_logo_Non-UIC.png"
   inkscape:export-xdpi="840.89001"
   inkscape:export-ydpi="840.89001">
   <style>
    #layer1 path {
      fill: #0A0;
      fill-opacity: 1;
      stroke: none;
    }
   </style>
  <defs
     id="defs3494" />
  <sodipodi:namedview
     id="base"
     pagecolor="#ffffff"
     bordercolor="#666666"
     borderopacity="1.0"
     inkscape:pageopacity="0.0"
     inkscape:pageshadow="2"
     inkscape:zoom="2.8"
     inkscape:cx="173.79024"
     inkscape:cy="34.385185"
     inkscape:document-units="px"
     inkscape:current-layer="layer1"
     showgrid="false"
     fit-margin-top="0"
     fit-margin-left="0"
     fit-margin-right="0"
     fit-margin-bottom="0"
     inkscape:window-width="1366"
     inkscape:window-height="716"
     inkscape:window-x="0"
     inkscape:window-y="27"
     inkscape:window-maximized="1" />
  <metadata
     id="metadata3497">
    <rdf:RDF>
      <cc:Work
         rdf:about="">
        <dc:format>image/svg+xml</dc:format>
        <dc:type
           rdf:resource="http://purl.org/dc/dcmitype/StillImage" />
        <dc:title></dc:title>
      </cc:Work>
    </rdf:RDF>
  </metadata>
  <g
     inkscape:label="Layer 1"
     inkscape:groupmode="layer"
     id="layer1"
     transform="translate(-115.23774,-93.133105)">
    <g
       id="g3899">
      <path
         inkscape:connector-curvature="0"
         style="fill-rule:nonzero;"
         id="path8244"
         d="m 152.34624,167.33144 0,-70.1825 9.2875,0 0,61.90125 34.56,0 0,8.28125 -43.8475,0 z" />
      <path
         inkscape:connector-curvature="0"
         style="fill-rule:nonzero;"
         id="path8248"
         d="m 253.32038,97.149557 9.29,0 0,40.523753 c 0,7.07125 -0.7875,12.67625 -2.37625,16.82875 -1.59625,4.15625 -4.49125,7.49375 -8.64875,10.13625 -4.1775,2.58625 -9.64125,3.87125 -16.41625,3.87125 -6.5625,0 -11.93125,-1.0975 -16.11375,-3.37625 -4.19375,-2.27625 -7.19875,-5.56 -8.9825,-9.8325 -1.77625,-4.2975 -2.705,-10.17 -2.705,-17.6275 l 0,-40.523753 9.33375,0 0,40.487503 c 0,6.1 0.5525,10.605 1.7,13.48625 1.14,2.885 3.05875,5.11875 5.83625,6.68125 2.75,1.565 6.14625,2.33875 10.1375,2.33875 6.80375,0 11.68875,-1.52125 14.57375,-4.65 2.92625,-3.0725 4.37125,-9.0325 4.37125,-17.85625 l 0,-40.487503 z" />
      <path
         inkscape:connector-curvature="0"
         style="fill-rule:nonzero;"
         id="path8252"
         d="m 310.91925,139.80081 0,-8.24375 29.75,-0.0625 0,26.06625 c -4.555,3.62125 -9.275,6.37625 -14.13125,8.22625 -4.84875,1.8125 -9.83,2.7225 -14.94125,2.7225 -6.8875,0 -13.1475,-1.46375 -18.795,-4.41625 -5.63125,-2.925 -9.87375,-7.2075 -12.79875,-12.80875 -2.84125,-5.60625 -4.27875,-11.79375 -4.27875,-18.7225 0,-6.855 1.4375,-13.1975 4.27875,-19.10875 2.8675,-5.925 6.98125,-10.345 12.35,-13.1925 5.34875,-2.875 11.5425,-4.3325 18.51125,-4.3325 5.105,0 9.66875,0.835 13.77125,2.48875 4.11,1.6275 7.3,3.93375 9.67875,6.84875 2.3,2.9475 4.0775,6.79 5.2875,11.49875 l -8.375,2.2925 c -1.07125,-3.5625 -2.3525,-6.3875 -3.93,-8.42125 -1.55625,-2.02125 -3.8,-3.6775 -6.71625,-4.9175 -2.87875,-1.2225 -6.115,-1.82875 -9.66125,-1.82875 -4.23,0 -7.91,0.64625 -10.985,1.92375 -3.11625,1.3275 -5.62,3.00375 -7.495,5.0875 -1.9325,2.145 -3.39375,4.44125 -4.44625,6.97 -1.79625,4.34375 -2.6675,9.05125 -2.6675,14.095 0,6.27375 1.0675,11.5125 3.225,15.73375 2.1275,4.22125 5.29,7.3325 9.4,9.3675 4.13625,2.07375 8.475,3.075 13.12125,3.075 4.01625,0 7.9275,-0.7725 11.7625,-2.30875 3.83375,-1.57 6.75625,-3.2025 8.7275,-4.97125 l 0,-13.06125 -20.6425,0 z" />
      <path
         inkscape:connector-curvature="0"
         style="fill-rule:nonzero;"
         id="path8256"
         d="m 122.17774,190.96182 0,-2.34875 6.005,0 0,5.5375 c -0.55625,0.575 -1.42,1.075 -2.52625,1.4725 -1.12,0.43125 -2.23,0.6325 -3.39625,0.6325 -1.4275,0 -2.69625,-0.27625 -3.77625,-0.86875 -1.08125,-0.60375 -1.885,-1.46875 -2.42,-2.6125 -0.535,-1.1475 -0.82625,-2.365 -0.82625,-3.69125 0,-1.45375 0.34375,-2.7125 0.9225,-3.82 0.62,-1.1325 1.4875,-1.98625 2.6575,-2.59625 0.90375,-0.43625 1.9975,-0.685 3.29875,-0.685 1.72375,0 3.05875,0.38125 4.03375,1.09125 0.96,0.70125 1.60625,1.7075 1.84375,2.975 l -2.7525,0.54625 c -0.185,-0.70875 -0.56625,-1.24125 -1.08625,-1.6125 -0.55125,-0.40875 -1.24125,-0.625 -2.03875,-0.625 -1.2225,0 -2.1775,0.40875 -2.91,1.165 -0.7225,0.7875 -1.05875,1.93625 -1.05875,3.46125 0,1.6175 0.36,2.8475 1.05875,3.66125 0.7425,0.84125 1.71375,1.27375 2.88875,1.27375 0.59875,0 1.18625,-0.1225 1.745,-0.355 0.63125,-0.2375 1.1225,-0.51 1.535,-0.83125 l 0,-1.77 -3.1975,0 z" />
      <path
         inkscape:connector-curvature="0"
         style="fill-rule:nonzero;"
         id="path8260"
         d="m 130.78612,196.04482 0,-13.815 2.73,0 5.635,9.23625 0,-9.23625 2.60875,0 0,13.815 -2.795,0 -5.56875,-9.03625 0,9.03625 -2.61,0 z" />
      <path
         inkscape:connector-curvature="0"
         style="fill-rule:nonzero;"
         id="path8264"
         d="m 144.69724,182.23006 2.76875,0 0,7.47375 c 0,1.18125 0.0437,1.9525 0.1025,2.31875 0.13875,0.56 0.4325,1.015 0.875,1.385 0.43875,0.31375 1.0875,0.51125 1.83875,0.51125 0.80375,0 1.4,-0.1925 1.7975,-0.51125 0.4025,-0.32875 0.6125,-0.71125 0.71,-1.205 0.0937,-0.46375 0.135,-1.24125 0.135,-2.31625 l 0,-7.65625 2.7875,0 0,7.24875 c 0,1.6525 -0.0875,2.8275 -0.23125,3.5125 -0.14875,0.7 -0.43,1.27375 -0.83625,1.7525 -0.3875,0.48125 -0.94625,0.8325 -1.63375,1.11 -0.6575,0.29875 -1.55375,0.4025 -2.6425,0.4025 -1.31875,0 -2.31125,-0.11875 -2.98625,-0.44875 -0.7,-0.27875 -1.24375,-0.69 -1.65875,-1.18875 -0.37125,-0.46875 -0.62,-0.97375 -0.75875,-1.51125 -0.18375,-0.80125 -0.2675,-1.97625 -0.2675,-3.5275 l 0,-7.35 z" />
      <path
         inkscape:connector-curvature="0"
         style="fill-rule:nonzero;"
         id="path8270"
         d="m 161.07787,196.25594 3.42125,-14.27375 2.00875,0 -3.4625,14.27375 -1.9675,0 z" />
      <path
         inkscape:connector-curvature="0"
         style="fill-rule:nonzero;"
         id="path8274"
         d="m 170.98874,199.87044 0,-17.43375 3.5525,0 0,14.475 8.82,0 0,2.95875 -12.3725,0 z" />
      <path
         d="m 185.78689,182.29194 3.56625,0 0,17.57875 -3.56625,0 0,-17.57875 z"
         id="path8276"
         style="fill-rule:nonzero;"
         inkscape:connector-curvature="0" />
      <path
         inkscape:connector-curvature="0"
         style="fill-rule:nonzero;"
         id="path8280"
         d="m 192.75025,199.87044 0,-17.57875 3.47375,0 7.16625,11.71875 0,-11.71875 3.3,0 0,17.57875 -3.58375,0 -7.0625,-11.465 0,11.465 -3.29375,0 z" />
      <path
         inkscape:connector-curvature="0"
         style="fill-rule:nonzero;"
         id="path8284"
         d="m 210.4175,182.29231 3.5675,0 0,9.50875 c 0,1.51875 0.01,2.49375 0.105,2.9425 0.14125,0.685 0.5125,1.29625 1.09,1.73625 0.5575,0.43125 1.355,0.6225 2.36,0.6225 1.005,0 1.7375,-0.175 2.26625,-0.57875 0.5,-0.4325 0.81375,-0.91625 0.9025,-1.52 0.12625,-0.62125 0.15125,-1.595 0.15125,-2.9925 l 0,-9.71875 3.56625,0 0,9.22375 c 0,2.0975 -0.1175,3.59875 -0.2975,4.46625 -0.21,0.88375 -0.54875,1.61375 -1.06875,2.20625 -0.52125,0.59 -1.2,1.07625 -2.06625,1.43 -0.8425,0.36625 -1.975,0.5325 -3.375,0.5325 -1.685,0 -2.96125,-0.17 -3.8125,-0.56875 -0.87125,-0.395 -1.535,-0.91 -2.065,-1.5375 -0.50875,-0.625 -0.82375,-1.2425 -0.97875,-1.92125 -0.23,-1.02625 -0.345,-2.51 -0.345,-4.4675 l 0,-9.36375 z" />
      <path
         inkscape:connector-curvature="0"
         style="fill-rule:nonzero;"
         id="path8288"
         d="m 226.37825,199.87044 6.0075,-9.16125 -5.43375,-8.4175 4.13,0 3.5225,5.645 3.45625,-5.645 4.11375,0 -5.4725,8.5325 6.00125,9.04625 -4.285,0 -3.89125,-6.075 -3.91875,6.075 -4.23,0 z" />
      <path
         inkscape:connector-curvature="0"
         style="fill-rule:nonzero;"
         id="path8292"
         d="m 251.333,182.29231 3.5325,0 0,9.50875 c 0,1.51875 0.0513,2.49375 0.1325,2.9425 0.17125,0.685 0.5075,1.29625 1.10125,1.73625 0.56125,0.43125 1.33125,0.6225 2.3425,0.6225 0.9775,0 1.755,-0.175 2.2475,-0.57875 0.52375,-0.4325 0.84875,-0.91625 0.94875,-1.52 0.12,-0.62125 0.1675,-1.595 0.1675,-2.9925 l 0,-9.71875 3.52375,0 0,9.22375 c 0,2.0975 -0.0913,3.59875 -0.31,4.46625 -0.1775,0.88375 -0.5275,1.61375 -1.0425,2.20625 -0.52,0.59 -1.2125,1.07625 -2.0475,1.43 -0.88,0.36625 -1.9975,0.5325 -3.39125,0.5325 -1.66125,0 -2.96375,-0.17 -3.8175,-0.56875 -0.89125,-0.395 -1.535,-0.91 -2.065,-1.5375 -0.49375,-0.625 -0.83375,-1.2425 -0.97375,-1.92125 -0.23875,-1.02625 -0.34875,-2.51 -0.34875,-4.4675 l 0,-9.36375 z" />
      <path
         inkscape:connector-curvature="0"
         style="fill-rule:nonzero;"
         id="path8296"
         d="m 268.16538,194.15019 3.4625,-0.34 c 0.17875,1.1475 0.6275,1.9975 1.26,2.55 0.64,0.55125 1.45875,0.80875 2.565,0.80875 1.14,0 2.00125,-0.24125 2.58875,-0.7375 0.59625,-0.4525 0.895,-1.02875 0.895,-1.68375 0,-0.4125 -0.16,-0.7525 -0.37125,-1.0525 -0.2825,-0.2875 -0.70625,-0.55 -1.285,-0.77125 -0.42125,-0.11875 -1.38375,-0.4175 -2.8725,-0.7575 -1.875,-0.47875 -3.22,-1.07 -3.99,-1.74625 -1.065,-0.9475 -1.62125,-2.1425 -1.62125,-3.51875 0,-0.915 0.2525,-1.73625 0.75875,-2.5275 0.5075,-0.7725 1.2525,-1.3675 2.19375,-1.7675 0.95875,-0.40875 2.12,-0.62375 3.495,-0.62375 2.15875,0 3.82625,0.48875 4.96125,1.4625 1.1,0.95875 1.70375,2.2675 1.75875,3.8575 l -3.55875,0.155 c -0.15625,-0.89 -0.47375,-1.54 -0.9875,-1.94125 -0.47375,-0.38 -1.23125,-0.5875 -2.2425,-0.5875 -1.025,0 -1.80625,0.2075 -2.40625,0.6425 -0.38,0.28875 -0.5875,0.625 -0.5875,1.06625 0,0.4225 0.18,0.75375 0.55875,1.0825 0.425,0.36625 1.51,0.76375 3.235,1.16375 1.72,0.4125 2.9975,0.835 3.85625,1.28125 0.80375,0.42 1.4475,1.01125 1.93,1.795 0.44625,0.73625 0.6725,1.6525 0.6725,2.78375 0,0.99625 -0.2475,1.95 -0.8075,2.84875 -0.57875,0.86875 -1.3725,1.48 -2.395,1.92875 -1.00125,0.42875 -2.27875,0.64125 -3.79875,0.64125 -2.25125,0 -3.9525,-0.5125 -5.14625,-1.5375 -1.16875,-1.02875 -1.88875,-2.5175 -2.12125,-4.475" />
      <path
         inkscape:connector-curvature="0"
         style="fill-rule:nonzero;"
         id="path8300"
         d="m 285.4395,199.87044 0,-17.57875 13.0275,0 0,2.97125 -9.5025,0 0,3.88125 8.84125,0 0,2.98 -8.84125,0 0,4.7875 9.82875,0 0,2.95875 -13.35375,0 z" />
      <path
         inkscape:connector-curvature="0"
         style="fill-rule:nonzero;"
         id="path8304"
         d="m 305.365,189.70444 2.62875,0 c 1.69,0 2.73375,-0.0463 3.16875,-0.20125 0.41625,-0.13875 0.7675,-0.37625 1.025,-0.74125 0.25125,-0.35625 0.34875,-0.80875 0.34875,-1.32125 0,-0.58625 -0.13875,-1.055 -0.4925,-1.435 -0.28875,-0.35625 -0.73375,-0.6125 -1.34,-0.7 -0.27375,-0.015 -1.1225,-0.0425 -2.58875,-0.0425 l -2.75,0 0,4.44125 z m -3.53625,10.16625 0,-17.57875 7.445,0 c 1.88875,0 3.2625,0.145 4.1075,0.45875 0.845,0.3225 1.52625,0.88125 2.04625,1.71 0.5025,0.8025 0.745,1.695 0.745,2.72875 0,1.34125 -0.365,2.43625 -1.14375,3.29125 -0.8025,0.8575 -1.95,1.41125 -3.47,1.6075 0.745,0.4325 1.39,0.94875 1.89125,1.505 0.49875,0.50875 1.15875,1.475 2.01875,2.8325 l 2.13375,3.445 -4.22125,0 -2.59,-3.83125 c -0.91375,-1.36 -1.5175,-2.23 -1.85,-2.58625 -0.3275,-0.375 -0.69875,-0.60125 -1.06625,-0.72125 -0.3975,-0.14875 -0.975,-0.22625 -1.7925,-0.22625 l -0.7175,0 0,7.365 -3.53625,0 z" />
      <path
         inkscape:connector-curvature="0"
         style="fill-rule:nonzero;"
         id="path8308"
         d="m 318.628,194.15019 3.45875,-0.34 c 0.19625,1.1475 0.6125,1.9975 1.27375,2.55 0.615,0.55125 1.48125,0.80875 2.565,0.80875 1.14125,0 1.9975,-0.24125 2.58375,-0.7375 0.56,-0.4525 0.845,-1.02875 0.845,-1.68375 0,-0.4125 -0.1275,-0.7525 -0.37125,-1.0525 -0.2225,-0.2875 -0.67375,-0.55 -1.26125,-0.77125 -0.43375,-0.11875 -1.3425,-0.4175 -2.855,-0.7575 -1.88375,-0.47875 -3.19625,-1.07 -3.99,-1.74625 -1.0725,-0.9475 -1.60625,-2.1425 -1.60625,-3.51875 0,-0.915 0.24875,-1.73625 0.76625,-2.5275 0.4975,-0.7725 1.1975,-1.3675 2.175,-1.7675 0.9625,-0.40875 2.11,-0.62375 3.47,-0.62375 2.195,0 3.8475,0.48875 4.96625,1.4625 1.1425,0.95875 1.68625,2.2675 1.76125,3.8575 l -3.52875,0.155 c -0.16375,-0.89 -0.49875,-1.54 -0.9975,-1.94125 -0.49875,-0.38 -1.25125,-0.5875 -2.25,-0.5875 -1.03375,0 -1.84625,0.2075 -2.41125,0.6425 -0.385,0.28875 -0.565,0.625 -0.565,1.06625 0,0.4225 0.16125,0.75375 0.535,1.0825 0.44,0.36625 1.55,0.76375 3.23375,1.16375 1.74625,0.4125 3.02875,0.835 3.8625,1.28125 0.8,0.42 1.445,1.01125 1.91625,1.795 0.47375,0.73625 0.7,1.6525 0.7,2.78375 0,0.99625 -0.27125,1.95 -0.86125,2.84875 -0.52375,0.86875 -1.33375,1.48 -2.3375,1.92875 -1.025,0.42875 -2.3125,0.64125 -3.80625,0.64125 -2.245,0 -3.97,-0.5125 -5.1425,-1.5375 -1.20375,-1.02875 -1.91,-2.5175 -2.12875,-4.475" />
      <path
         inkscape:connector-curvature="0"
         style="fill-rule:nonzero;"
         id="path8312"
         d="m 350.86425,193.40807 0,-2.9725 7.69875,0 0,6.98375 c -0.76375,0.73625 -1.88125,1.36 -3.2625,1.91 -1.42625,0.56 -2.84875,0.8225 -4.27375,0.8225 -1.82375,0 -3.4725,-0.3925 -4.82375,-1.135 -1.36125,-0.79625 -2.40375,-1.915 -3.05875,-3.3175 -0.70625,-1.43375 -1.04625,-3.0025 -1.04625,-4.7125 0,-1.7975 0.3875,-3.42125 1.16,-4.8475 0.74875,-1.4375 1.87,-2.5075 3.38,-3.26375 1.11625,-0.58875 2.5,-0.89375 4.18125,-0.89375 2.205,0 3.9075,0.455 5.12125,1.38625 1.235,0.9 2.035,2.15375 2.335,3.7925 l -3.4875,0.64875 c -0.2575,-0.85875 -0.72,-1.545 -1.42,-2.045 -0.69,-0.47375 -1.5325,-0.735 -2.54875,-0.735 -1.54,0 -2.775,0.4875 -3.70625,1.4725 -0.91,0.98625 -1.35125,2.44625 -1.35125,4.3825 0,2.05375 0.44125,3.62125 1.35125,4.6775 0.96125,1.045 2.16625,1.54 3.6625,1.54 0.7475,0 1.48625,-0.13375 2.24875,-0.4075 0.7675,-0.27875 1.3925,-0.65 1.9,-1.07125 l 0,-2.215 -4.06,0 z" />
      <path
         inkscape:connector-curvature="0"
         style="fill-rule:nonzero;"
         id="path8316"
         d="m 365.354,189.70444 2.63,0 c 1.68375,0 2.76375,-0.0463 3.20375,-0.20125 0.39875,-0.13875 0.7375,-0.37625 0.99,-0.74125 0.22625,-0.35625 0.33875,-0.80875 0.33875,-1.32125 0,-0.58625 -0.14,-1.055 -0.48,-1.435 -0.2975,-0.35625 -0.74,-0.6125 -1.31375,-0.7 -0.30375,-0.015 -1.14875,-0.0425 -2.61,-0.0425 l -2.75875,0 0,4.44125 z m -3.53,10.16625 0,-17.57875 7.43125,0 c 1.9125,0 3.26125,0.145 4.09875,0.45875 0.8725,0.3225 1.55375,0.88125 2.06,1.71 0.5225,0.8025 0.75375,1.695 0.75375,2.72875 0,1.34125 -0.37875,2.43625 -1.1475,3.29125 -0.7875,0.8575 -1.92375,1.41125 -3.46875,1.6075 0.75,0.4325 1.37875,0.94875 1.89375,1.505 0.48375,0.50875 1.155,1.475 2.0225,2.8325 l 2.14375,3.445 -4.2575,0 -2.54875,-3.83125 c -0.915,-1.36 -1.55,-2.23 -1.8575,-2.58625 -0.34375,-0.375 -0.68125,-0.60125 -1.09375,-0.72125 -0.36375,-0.14875 -0.945,-0.22625 -1.79625,-0.22625 l -0.70375,0 0,7.365 -3.53,0 z" />
      <path
         inkscape:connector-curvature="0"
         style="fill-rule:nonzero;"
         id="path8320"
         d="m 382.44638,191.06307 c 0,1.99 0.4825,3.4925 1.36625,4.5125 0.945,1.03125 2.08625,1.52625 3.52875,1.52625 1.42125,0 2.565,-0.495 3.4525,-1.49375 0.92625,-1.0525 1.3775,-2.555 1.3775,-4.62125 0,-1.99375 -0.435,-3.49875 -1.315,-4.48125 -0.87875,-0.99 -2.06375,-1.47625 -3.515,-1.47625 -1.4675,0 -2.63625,0.48625 -3.52875,1.5075 -0.895,1.015 -1.36625,2.5025 -1.36625,4.52625 m -3.655,0.11375 c 0,-1.78125 0.2625,-3.28625 0.8225,-4.50625 0.37125,-0.90625 0.93875,-1.68875 1.62875,-2.405 0.71,-0.71125 1.43125,-1.23375 2.26625,-1.59875 1.1025,-0.43625 2.365,-0.685 3.8075,-0.685 2.56125,0 4.645,0.79875 6.20625,2.4225 1.54625,1.58125 2.31625,3.8375 2.31625,6.67625 0,2.86375 -0.7425,5.07125 -2.31625,6.675 -1.51875,1.60125 -3.60125,2.39625 -6.18125,2.39625 -2.60625,0 -4.6675,-0.795 -6.22125,-2.37625 -1.525,-1.59 -2.32875,-3.78 -2.32875,-6.59875" />
      <path
         inkscape:connector-curvature="0"
         style="fill-rule:nonzero;"
         id="path8324"
         d="m 398.5755,182.29231 3.55625,0 0,9.50875 c 0,1.51875 0.0437,2.49375 0.1275,2.9425 0.15125,0.685 0.5225,1.29625 1.1075,1.73625 0.57125,0.43125 1.3375,0.6225 2.33125,0.6225 1.00125,0 1.77125,-0.175 2.295,-0.57875 0.49375,-0.4325 0.78375,-0.91625 0.89125,-1.52 0.1025,-0.62125 0.16375,-1.595 0.16375,-2.9925 l 0,-9.71875 3.55875,0 0,9.22375 c 0,2.0975 -0.1225,3.59875 -0.31,4.46625 -0.18625,0.88375 -0.5225,1.61375 -1.04375,2.20625 -0.52375,0.59 -1.20125,1.07625 -2.1025,1.43 -0.85125,0.36625 -1.9575,0.5325 -3.3525,0.5325 -1.67,0 -2.93125,-0.17 -3.8125,-0.56875 -0.8475,-0.395 -1.54875,-0.91 -2.0475,-1.5375 -0.5175,-0.625 -0.82,-1.2425 -0.9775,-1.92125 -0.2475,-1.02625 -0.385,-2.51 -0.385,-4.4675 l 0,-9.36375 z" />
      <path
         inkscape:connector-curvature="0"
         style="fill-rule:nonzero;"
         id="path8328"
         d="m 419.89138,185.26356 0,4.97375 1.93625,0 c 1.4125,0 2.3075,-0.0863 2.78,-0.28 0.485,-0.17625 0.8425,-0.45375 1.13,-0.83 0.25875,-0.415 0.39625,-0.88 0.39625,-1.38 0,-0.64 -0.18625,-1.15375 -0.56125,-1.59125 -0.38,-0.43 -0.84875,-0.68125 -1.4375,-0.78875 -0.41125,-0.0613 -1.2625,-0.10375 -2.51,-0.10375 l -1.73375,0 z m -3.56625,14.6075 0,-17.57875 5.69875,0 c 2.17375,0 3.59125,0.0863 4.22125,0.2525 1.0275,0.2675 1.845,0.85375 2.53625,1.72 0.685,0.90125 1.025,2.015 1.025,3.42 0,1.0775 -0.21625,1.9875 -0.5975,2.72375 -0.4125,0.7225 -0.8975,1.31 -1.47875,1.7475 -0.635,0.4225 -1.21875,0.6825 -1.86375,0.81375 -0.8475,0.17625 -2.0475,0.2525 -3.68125,0.2525 l -2.29375,0 0,6.64875 -3.56625,0 z" />
      <path
         inkscape:connector-curvature="0"
         style="fill-rule:evenodd;"
         id="path8332"
         d="m 410.84475,97.488807 c -0.37375,-0.2925 -0.99375,-0.4475 -1.19875,0.0925 -0.16625,0.44875 -0.0975,0.92625 -0.20125,1.42875 0,0.175 -0.22,0.1775 -0.30875,0.32375 -0.16875,0.205 -0.14875,0.43125 -0.0463,0.50875 0.39,0.360003 1.03875,-0.4025 1.545,-0.655 0.3825,-0.245 0.91375,0.05875 1.36,-0.215 0.0913,-0.07125 0.11625,-0.24375 0.0225,-0.41125 -0.2775,-0.46875 -0.76,-0.72625 -1.1725,-1.0725 M 398.556,107.51256 c -0.355,0.035 -0.23375,0.34625 -0.2025,0.5875 0.5375,0.34125 0.635,1.06125 0.76375,1.6025 0,0.21125 0.2875,0.10375 0.33875,0.02 0.25875,-0.4475 -0.0513,-0.9475 -0.18875,-1.46375 -0.0987,-0.2725 -0.26,-0.59125 -0.53125,-0.77625 -0.0312,-0.0513 -0.135,0.03 -0.18,0.03 m 9.66875,0.17 c 0.455,0 1.035,0.80375 1.11125,1.70625 0,0.1375 0.3675,0.1225 0.45375,-0.0375 0.19125,-0.36625 0.0612,-0.7375 -0.0588,-1.1825 -0.055,-0.37125 -0.47125,-0.68625 -0.84625,-0.86625 -0.23375,-0.125 -0.47875,-0.16125 -0.80125,-0.125 -0.0875,0.045 -0.3375,0.47375 0.14125,0.505 m -4.7,3.15875 c 0.20375,0.30375 0.5575,0.30375 0.84125,0.4225 0.18125,0.0612 0.5,0.15625 0.5875,-0.0675 0.24125,-0.7225 -0.74875,-0.47875 -1.21625,-0.47875 -0.08,0 -0.29625,-0.02 -0.2125,0.12375 m -2.2825,-0.08 c -0.48125,-0.0637 -1.08875,-0.0437 -1.40625,0.3225 -0.09,0.1425 -0.045,0.52375 0.19125,0.6125 0.28125,0.1225 0.47125,-0.17125 0.53625,-0.39125 0.025,-0.10875 0.0775,-0.2425 0.1775,-0.25625 0.10625,-0.0787 0.2775,-0.015 0.4325,-0.0787 0.155,-0.07 0.0888,-0.20875 0.0688,-0.20875 m 14.64875,7.92875 c 0.68375,0.57125 1.1475,1.0925 1.51625,0.2075 0.37125,-0.88 0.37125,-1.235 -0.56,-1.56125 -0.9275,-0.34 -1.38875,-0.73125 -1.80625,-1.23125 -0.39,-0.48875 -0.55625,0.3625 -0.205,1.175 0.41,0.99375 0.68375,1.12875 1.055,1.41 m -27.72875,13.74 c 0.35375,0.4 0.81875,-0.54875 1.28625,-0.92 0.44875,-0.40375 0.6475,-0.97125 0.53,-1.5475 -0.0562,-0.305 -0.53,-0.2025 -0.6375,-0.095 -0.33,0.30125 -0.24125,0.79 -0.4375,1.23875 -0.26375,0.48875 -1.0525,0.9275 -0.74125,1.32375 m 5.99,-26.365 C 393.806,97.256307 397.2185,93.362557 404.341,93.137557 c 7.0975,-0.15125 11.605,3.56875 12.55625,8.471253 0.9575,4.90875 0.4625,11.39125 2.3075,14.76875 1.845,3.34875 3.02625,5.925 6.1375,9.7675 3.15125,3.87625 5.14375,7.82 6.06,12.61625 0.94625,4.76625 1.485,7.02625 -0.8225,9.50875 -2.3125,2.48125 -6.4075,6.53 -9.55,2.005 -1.6125,-2.265 -1.7675,-5.065 0.84625,-5.70375 1.69375,-0.38375 2.8675,-0.275 4.15125,0.34875 1.2675,0.64375 1.53375,0.3525 0.03,-0.76 -1.5075,-1.10875 -1.82875,-0.0637 -1.31375,-1.86 0.51,-1.83125 1.175,-5.11625 -0.26875,-8.66625 -0.65625,-1.6675 -2.9825,-6.14875 -5.0575,-7.25375 -0.19375,-0.11625 -0.73375,-0.3375 -0.365,0.1475 0.58625,0.695 3.655,5.08875 4.5175,7.715 0.93625,2.84875 1.03875,5.55875 0.62875,7.29375 -0.47375,1.75125 -1.29375,2.43125 -2.29375,2.43125 -0.9775,0.0138 -1.8675,0.49375 -1.90375,-1.78375 -0.0212,-2.2925 0.19375,-5.75125 -1.0425,-8.68625 -1.24125,-2.8925 -2.78125,-4.87625 -3.08875,-6.09 -0.35,-1.2625 -1.0725,-4.5225 -2.57625,-6.38375 -1.4925,-1.8725 -2.17375,-3.1175 -1.39625,-5.2525 0.7425,-2.15375 0.14375,-2.72625 -1.3975,-3.175 -1.555,-0.415 -3.62625,-1.07125 -4.13875,-2.09125 -0.545,-1.04 -0.23,-3.11375 0.90625,-3.64125 1.1675,-0.525 3.1425,0.17125 3.20375,1.67625 0.0838,1.4725 -0.62,2.255 -0.42,2.59875 0.19625,0.29375 1.20625,0.84 1.75,0.23 0.495,-0.6075 0.58875,-2.4125 0.0962,-4.0825 -0.55375,-1.68 -0.80125,-2.8375 -2.6975,-3.2275 -1.88,-0.3575 -2.695,-0.24375 -3.5975,0.93 -0.91375,1.175 -1.29625,3.06 -1.02,4.44625 0.28375,1.32625 -0.24125,0.5775 -1.14125,0.50875 -0.93875,-0.0613 -0.65875,-0.1375 -1.56125,-0.0362 -0.9075,0.0625 -0.57875,-0.55625 -0.6975,-1.51875 -0.025,-0.9575 -0.18125,-2.9775 -1.555,-3.71375 -1.365,-0.785 -3.695,0.14375 -3.6,3.39625 0.0888,3.2 1.21625,4.77375 1.8275,3.57625 0.66,-1.1425 0.35,-0.56375 -0.29875,-1.07875 -0.675,-0.49625 -1.13,-2.65375 -0.44875,-3.2825 0.7,-0.66875 1.5625,-0.66875 2.01,-0.29875 0.4675,0.3825 1.19125,1.68875 1.06125,2.53875 -0.11875,0.84125 -0.18,0.885 -1.0325,1.4725 -0.82375,0.60875 -1.15125,1.1425 -2.09375,1.7625 -0.98375,0.65 -1.33,2.1625 -0.57375,2.565 0.7775,0.36625 0.85,0.285 1.47125,1.27875 0.6825,0.9625 1.79625,1.4125 4.48375,0.92625 2.71,-0.48875 3.855,-1.1375 5.88,-1.86875 1.51,-0.51125 0.9725,-0.46375 1.51,-1.05875 0.50125,-0.57375 1.3375,0.25375 0.58625,0.785 -0.775,0.53125 -2.51625,1.06125 -3.82375,1.525 -1.25875,0.47875 -2.76125,1.76125 -5.4675,1.66375 -2.735,-0.1075 -0.845,-0.0613 -1.71375,-0.1075 -0.84875,-0.0613 -1.20375,0.0562 -0.2875,0.68125 0.91,0.63125 0.82,0.8525 1.59875,1.13125 0.78625,0.22625 1.815,0.22625 3.06375,-0.23125 1.21875,-0.48 4.30375,-1.86 5.2675,-2.52 0.975,-0.64625 1.76875,0.21125 0.80375,0.86125 -0.9975,0.6325 -1.27625,0.45875 -2.16375,1.03625 -0.9,0.59 -2.54375,1.58125 -3.625,2.60125 -1.12125,1.06875 -1.37,1.13125 -2.73375,1.205 -1.34625,0.0875 -2.21125,-1.33625 -2.81375,-1.98375 -0.59875,-0.645 -0.53625,-1.0525 -1.23625,-1.79875 -0.70625,-0.7775 -0.7725,-0.58625 -0.89625,0.24875 -0.13,0.86 -1.085,2.975 -1.93375,4.45 -0.80625,1.41 -0.83875,3.17875 -0.71,4.3825 0.13,1.22625 -0.215,1.38125 -1.17,2.81 -0.91,1.435 -2.50125,5.64875 -2.8,7.01375 -0.2275,1.33 -0.5275,4.1475 -0.35625,5.77 0.11375,1.5825 -0.3175,1.9325 -1.5,0.84375 -1.17375,-1.075 -1.57375,-2.31625 -1.5225,-3.94 0.0575,-1.40375 0.21875,-2.36 0.39,-2.875 0.17125,-0.505 0,-0.87625 -0.36125,-0.235 -0.76375,1.36875 -0.80625,3.76875 -0.62875,4.61875 0.21375,0.825 0.29625,2.3175 2.4325,4.3025 2.18,1.99125 5.30125,4.765 7.89375,6.60875 2.62,1.865 3.5475,4.17 -0.2775,5.8825 2.42375,3.23875 3.74625,4.91625 2.7175,7.04 2.1325,-1.24125 1.28,-4.10875 0.245,-4.90625 -1.04625,-0.77125 -0.4175,-1.36125 0.48125,-0.80125 0.925,0.59375 1.21875,1.74375 4.8,1.68 3.55875,-0.11125 7.41125,-0.4825 9.515,-3.6325 2.1425,-3.12375 2.545,-0.47625 2.03125,1.325 -0.48,1.79875 -1.7475,5.92375 0.2625,5.5125 0.25125,-2.4025 0.825,-4.4825 0.79625,-7.07875 -0.0263,-2.59 0.22625,-3.84125 0,-7.6125 -0.25,-3.6025 1.325,-3.86 2.95125,-3.89125 1.62375,0 1.10125,1.04125 0.0662,0.99625 -1.0325,-0.0662 -2.1075,0.33875 -2.1625,2.9775 -0.0663,2.6775 0,2.42125 0.47,4.76875 0.4825,2.42125 0.54375,3.1425 0.16875,5.79125 -0.35375,2.65125 -0.68,4.065 1.0975,5.705 1.75125,1.60875 4.38875,1.13 5.74,0.0775 1.37375,-1.01875 3.92,-3.4675 6.25625,-4.2575 2.335,-0.7925 4.78625,-1.3825 6.06,-2.7 1.29625,-1.31125 0.95875,-2.205 -0.405,-2.91 -1.39,-0.72625 -2.6525,-0.375 -3.7,-1.525 -1.03875,-1.15375 -1.565,-3.74 -1.185,-5.095 0.3375,-1.37375 0.81625,-0.79875 0.81625,0.175 0,0.96375 0.0788,1.85875 1.05875,3.08 0.9775,1.2475 1.9,1.80875 3.465,2.7725 1.55125,0.9475 2.5225,2.50875 0.58625,3.87125 -1.91,1.3925 -2.99,2.17625 -4.625,2.78875 -1.5975,0.71 -4.25375,2.3025 -5.86875,3.92625 -1.61,1.595 -2.4825,3.04375 -5.65,3.08375 -3.18,0.015 -4.62,-0.74625 -5.6,-2.6225 -0.6525,-1.2825 -0.98125,-1.11625 -2.46,-1.15625 -1.4775,-0.0462 -6.47125,-0.0462 -10.35875,0.0275 -3.90375,0.0725 -5.17875,0.7425 -6.9025,2.20125 -1.7475,1.4075 -2.38,2.52875 -5.7125,1.4475 -3.26375,-1.05875 -5.05,-2.28125 -9.94625,-3.215 -4.93625,-0.91125 -2.29125,-0.5075 -5.275,-1.11125 -2.99375,-0.62375 -2.78875,-2.0825 -2.41,-3.24125 0.3825,-1.16375 1.3125,-2.9975 0.4675,-5.3625 -0.84625,-2.41625 -0.5325,-4.85625 1.7075,-4.88875 2.27375,-0.008 4.42875,0.425 5.31625,-2.575 0.83625,-2.97625 1.14625,-0.6525 0.8775,0.13375 -0.25125,0.78 -0.35125,2.9125 -2.355,3.24875 -2.02,0.35375 -2.44625,-0.115 -3.70875,-0.0937 -1.20875,0 -1.7175,0.86 -1.0825,2.25375 0.6675,1.45875 1.40375,2.93125 1.28375,4.1625 -0.12875,1.23125 -0.255,1.68 -1.1425,2.83875 -0.92,1.185 -0.77375,1.77125 0.8325,2.15875 1.64,0.365 4.5425,1.13875 7.26875,1.765 2.745,0.5875 2.92,0.5875 7.67125,1.81 4.71875,1.19125 6.01125,-1.01125 6.35375,-3.6825 0.36875,-2.65375 -1.445,-5.16375 -3.19,-7.7025 -1.6675,-2.49125 -3.48375,-5.38875 -5.70625,-8.04125 -2.22125,-2.6275 -3.53125,-2.82125 -4.63125,-2.23125 -1.07625,0.61 -1.30375,0.495 -1.36875,-1.02375 -0.0962,-1.4675 -0.225,-2.4725 1.02375,-4.67625 1.19625,-2.215 2.27625,-4.6175 3.545,-8.29 1.24875,-3.71875 2.4375,-4.43875 4.5975,-7.6225 2.16125,-3.1925 1.21875,-1.965 2.745,-4.10625 1.54,-2.13625 1.09125,-1.74875 0.93625,-5.12875 -0.16375,-3.35 -0.29875,-5.2975 -0.45125,-9.70625" />
      <path
         inkscape:connector-curvature="0"
         style="fill-rule:evenodd;"
         id="path8336"
         d="m 422.93463,148.88294 c 0.0275,-0.24375 0.1775,-0.77625 0.43,-0.8575 0.0825,-0.015 0.16375,0 0.205,0.115 0.035,0.16375 -0.1225,1.11625 -0.0412,1.31125 0.0762,0.235 0.32875,0.21875 0.54125,0.14 0.43625,-0.14 0.67375,-0.66375 0.655,-0.7275 0,-0.03 -0.0225,-0.03 -0.0225,-0.03 -0.0937,0.0487 -0.1225,0.2925 -0.32375,0.36125 -0.11875,0.0375 -0.24375,0.0213 -0.27,-0.13 -0.035,-0.11625 0.1025,-1.1 0.0263,-1.33375 -0.0613,-0.21375 -0.2775,-0.2975 -0.50625,-0.19875 -0.485,0.1375 -0.69375,0.9 -0.79125,1.30125 l 0.035,-0.99875 -0.56375,0.19 -0.0325,2.1075 0.56125,-0.2025 c 0,-0.33875 0.0163,-0.75625 0.0975,-1.0475" />
      <path
         inkscape:connector-curvature="0"
         style="fill-rule:evenodd;"
         id="path8340"
         d="m 425.525,149.12706 c 0.45375,-0.17875 0.705,-0.74625 0.6325,-0.8225 l -0.0238,-0.035 c -0.025,0.035 -0.10625,0.335 -0.37125,0.45875 -0.1375,0.0138 -0.2375,0 -0.2825,-0.09 -0.03,-0.11125 0,-0.33375 0,-0.4975 l 0,-0.92625 0.65375,-0.24625 -0.025,-0.20625 -0.62875,0.20625 0.045,-0.87875 -0.6375,0.33875 0,1.99 c 0,0.22 0,0.4025 0.015,0.51 0.0988,0.24625 0.36125,0.2875 0.6225,0.19875" />
    </g>
  </g>
</svg>
